<?xml version="1.0" encoding="UTF-8" standalone="no"?>
<!-- Generated by IcoMoon.io -->

<svg
   xmlns:dc="http://purl.org/dc/elements/1.1/"
   xmlns:cc="http://creativecommons.org/ns#"
   xmlns:rdf="http://www.w3.org/1999/02/22-rdf-syntax-ns#"
   xmlns:svg="http://www.w3.org/2000/svg"
   xmlns="http://www.w3.org/2000/svg"
   xmlns:sodipodi="http://sodipodi.sourceforge.net/DTD/sodipodi-0.dtd"
   xmlns:inkscape="http://www.inkscape.org/namespaces/inkscape"
   version="1.1"
   width="240"
   height="120"
   viewBox="0 0 32 16"
   id="svg4"
   sodipodi:docname="attachment.svg"
   inkscape:version="0.92.1 r15371">
  <metadata
     id="metadata10">
    <rdf:RDF>
      <cc:Work
         rdf:about="">
        <dc:format>image/svg+xml</dc:format>
        <dc:type
           rdf:resource="http://purl.org/dc/dcmitype/StillImage" />
        <dc:title></dc:title>
      </cc:Work>
    </rdf:RDF>
  </metadata>
  <defs
     id="defs8" />
  <sodipodi:namedview
     pagecolor="#ffffff"
     bordercolor="#666666"
     borderopacity="1"
     objecttolerance="10"
     gridtolerance="10"
     guidetolerance="10"
     inkscape:pageopacity="0"
     inkscape:pageshadow="2"
     inkscape:window-width="2606"
     inkscape:window-height="1776"
     id="namedview6"
     showgrid="false"
     inkscape:zoom="14.75"
     inkscape:cx="8"
     inkscape:cy="8"
     inkscape:window-x="130"
     inkscape:window-y="48"
     inkscape:window-maximized="1"
     inkscape:current-layer="svg4" />
  <path
     d="M 15.074,2.794 C 13.607,1.084 11.43,0 9,0 4.582,0 1,3.582 1,8 c 0,4.418 3.582,8 8,8 2.43,0 4.607,-1.084 6.074,-2.794 L 10,8 Z M 11,1.884 c 0.616,0 1.116,0.499 1.116,1.116 0,0.617 -0.499,1.116 -1.116,1.116 C 10.383,4.116 9.884,3.617 9.884,3 9.884,2.384 10.383,1.884 11,1.884 Z"
     id="path2"
     inkscape:connector-curvature="0"
     style="fill:#000000" />
  <path
     id="path12"
     d="m 24.144067,15.542373 h -2.5 c -0.827,0 -1.5,-0.673 -1.5,-1.5 0,-0.267 0.07,-0.518 0.193,-0.736 -0.417,-0.267 -0.693,-0.734 -0.693,-1.264 0,-0.384 0.145,-0.734 0.383,-1 -0.238,-0.266 -0.383,-0.616 -0.383,-1 0,-0.1750001 0.03,-0.3440001 0.086,-0.5000001 h -3.586 c -0.826999,0 -1.499999,-0.673 -1.499999,-1.5 0,-0.827 0.673,-1.5 1.499999,-1.5 h 6.167 l -1.466,-2.75 c -0.131,-0.227 -0.201,-0.486 -0.201,-0.75 0,-0.827 0.673,-1.5 1.5,-1.5 0.412,0 0.796,0.164 1.082,0.461 0.004,0.004 0.007,0.008 0.011,0.012 l 3.407001,3.737 v -0.71 c 0,-0.276 0.224,-0.5 0.5,-0.5 h 3 c 0.276,0 0.5,0.224 0.5,0.5 V 15.042373 c 0,0.276 -0.224,0.5 -0.5,0.5 h -3 c -0.276,0 -0.5,-0.224 -0.5,-0.5 v -0.691 l -2.276001,1.138 c -0.069,0.035 -0.146,0.053 -0.224,0.053 z m 4.000001,-1 c 0.276,0 0.5,-0.224 0.5,-0.5 0,-0.276 -0.224,-0.5 -0.5,-0.5 -0.276,0 -0.5,0.224 -0.5,0.5 0,0.276 0.224,0.5 0.5,0.5 z m -4.118001,0 2.618001,-1.309 V 7.2363729 l -4.143001,-4.544 c -0.095,-0.097 -0.221,-0.15 -0.357,-0.15 -0.276,0 -0.5,0.224 -0.5,0.5 0,0.085 0.02,0.166 0.061,0.239 0.005,0.008 0.01,0.017 0.014,0.025 l 1.866,3.5 c 0.083,0.155 0.078,0.342 -0.012,0.492 -0.09,0.15 -0.253,0.243 -0.429,0.243 h -7 c -0.275999,0 -0.499999,0.224 -0.499999,0.5 0,0.276 0.224,0.5 0.499999,0.5 h 5 c 0.276,0 0.5,0.224 0.5,0.5 0,0.276 -0.224,0.5 -0.5,0.5 -0.276,0 -0.5,0.224 -0.5,0.5000001 0,0.276 0.224,0.5 0.5,0.5 0.276,0 0.5,0.224 0.5,0.5 0,0.276 -0.224,0.5 -0.5,0.5 -0.276,0 -0.5,0.224 -0.5,0.5 0,0.276 0.224,0.5 0.5,0.5 h 0.5 c 0.276,0 0.5,0.224 0.5,0.5 0,0.276 -0.224,0.5 -0.5,0.5 -0.276,0 -0.5,0.224 -0.5,0.5 0,0.276 0.224,0.5 0.5,0.5 h 2.382 z"
     inkscape:connector-curvature="0"
     style="fill:#000000" />
</svg>
